<?xml version="1.0" encoding="UTF-8"?>
<!DOCTYPE svg PUBLIC "-//W3C//DTD SVG 1.1//EN" "http://www.w3.org/Graphics/SVG/1.1/DTD/svg11.dtd">
<svg xmlns="http://www.w3.org/2000/svg" version="1.1" width="512px" height="512px" style="shape-rendering:geometricPrecision; text-rendering:geometricPrecision; image-rendering:optimizeQuality; fill-rule:evenodd; clip-rule:evenodd" xmlns:xlink="http://www.w3.org/1999/xlink">
<g><path style="opacity:0.996" fill="#ff5e73" d="M 243.5,-0.5 C 251.5,-0.5 259.5,-0.5 267.5,-0.5C 330.674,21.2435 388.007,53.0769 439.5,95C 455.988,108.99 471.988,123.49 487.5,138.5C 491.065,145.177 494.065,152.177 496.5,159.5C 427.241,82.6835 342.908,29.3501 243.5,-0.5 Z"/></g>
<g><path style="opacity:0.993" fill="#ff577a" d="M 231.5,-0.5 C 235.5,-0.5 239.5,-0.5 243.5,-0.5C 342.908,29.3501 427.241,82.6835 496.5,159.5C 498.565,164.696 500.232,170.03 501.5,175.5C 483.092,155.255 463.426,135.422 442.5,116C 378.118,60.9702 304.784,22.4702 222.5,0.5C 225.713,0.810002 228.713,0.476669 231.5,-0.5 Z"/></g>
<g><path style="opacity:0.991" fill="#ff646d" d="M 267.5,-0.5 C 271.5,-0.5 275.5,-0.5 279.5,-0.5C 285.518,0.368729 291.518,1.36873 297.5,2.5C 346.578,23.3637 392.244,49.8637 434.5,82C 448.392,94.0669 462.392,105.9 476.5,117.5C 480.434,124.369 484.101,131.369 487.5,138.5C 471.988,123.49 455.988,108.99 439.5,95C 388.007,53.0769 330.674,21.2435 267.5,-0.5 Z"/></g>
<g><path style="opacity:0.996" fill="#fe527f" d="M 222.5,0.5 C 304.784,22.4702 378.118,60.9702 442.5,116C 463.426,135.422 483.092,155.255 501.5,175.5C 503.435,180.573 504.768,185.906 505.5,191.5C 475.238,155.086 440.905,122.252 402.5,93C 342.463,50.1468 276.463,20.3134 204.5,3.5C 210.535,2.49705 216.535,1.49705 222.5,0.5 Z"/></g>
<g><path style="opacity:0.985" fill="#ff6868" d="M 297.5,2.5 C 304.804,2.88109 311.804,4.21442 318.5,6.5C 370.412,30.4599 418.245,61.4599 462,99.5C 462.464,98.9056 462.631,98.2389 462.5,97.5C 467.523,103.867 472.19,110.534 476.5,117.5C 462.392,105.9 448.392,94.0669 434.5,82C 392.244,49.8637 346.578,23.3637 297.5,2.5 Z"/></g>
<g><path style="opacity:0.998" fill="#fa5085" d="M 204.5,3.5 C 276.463,20.3134 342.463,50.1468 402.5,93C 440.905,122.252 475.238,155.086 505.5,191.5C 507.786,198.877 509.119,206.544 509.5,214.5C 479.136,174.63 443.803,138.797 403.5,107C 335.993,56.3094 260.326,24.1427 176.5,10.5C 185.572,7.56538 194.905,5.23205 204.5,3.5 Z"/></g>
<g><path style="opacity:0.998" fill="#f54e8c" d="M 176.5,10.5 C 260.326,24.1427 335.993,56.3094 403.5,107C 443.803,138.797 479.136,174.63 509.5,214.5C 510.167,217.833 510.833,221.167 511.5,224.5C 511.5,228.5 511.5,232.5 511.5,236.5C 510.079,232.207 507.913,228.207 505,224.5C 419.592,107.843 305.092,38.1759 161.5,15.5C 166.216,13.2613 171.216,11.5946 176.5,10.5 Z"/></g>
<g><path style="opacity:0.948" fill="#ff6e62" d="M 318.5,6.5 C 377.585,19.6869 425.585,50.0203 462.5,97.5C 462.631,98.2389 462.464,98.9056 462,99.5C 418.245,61.4599 370.412,30.4599 318.5,6.5 Z"/></g>
<g><path style="opacity:0.998" fill="#f14d92" d="M 161.5,15.5 C 305.092,38.1759 419.592,107.843 505,224.5C 507.913,228.207 510.079,232.207 511.5,236.5C 511.5,240.833 511.5,245.167 511.5,249.5C 424.749,118.395 302.749,43.0619 145.5,23.5C 143.488,23.8396 141.488,24.1729 139.5,24.5C 146.447,20.7351 153.781,17.7351 161.5,15.5 Z"/></g>
<g><path style="opacity:0.998" fill="#ec4b99" d="M 511.5,249.5 C 511.5,254.833 511.5,260.167 511.5,265.5C 510.603,266.598 509.77,266.598 509,265.5C 434.644,144.903 327.81,69.7365 188.5,40C 167.474,36.2482 146.474,33.4149 125.5,31.5C 129.849,28.6589 134.516,26.3255 139.5,24.5C 141.488,24.1729 143.488,23.8396 145.5,23.5C 302.749,43.0619 424.749,118.395 511.5,249.5 Z"/></g>
<g><path style="opacity:0.998" fill="#e84a9d" d="M 125.5,31.5 C 146.474,33.4149 167.474,36.2482 188.5,40C 327.81,69.7365 434.644,144.903 509,265.5C 509.77,266.598 510.603,266.598 511.5,265.5C 511.5,267.167 511.5,268.833 511.5,270.5C 510.549,271.919 510.216,273.585 510.5,275.5C 446.304,166.514 353.637,93.0143 232.5,55C 195.199,44.2833 157.199,37.7833 118.5,35.5C 120.635,33.9291 122.968,32.5957 125.5,31.5 Z"/></g>
<g><path style="opacity:0.998" fill="#e64aa0" d="M 118.5,35.5 C 157.199,37.7833 195.199,44.2833 232.5,55C 353.637,93.0143 446.304,166.514 510.5,275.5C 510.296,278.518 509.963,281.518 509.5,284.5C 457.786,191.298 383.119,122.798 285.5,79C 229.826,55.0789 171.826,41.9122 111.5,39.5C 113.67,37.9138 116.004,36.5804 118.5,35.5 Z"/></g>
<g><path style="opacity:0.998" fill="#e248a5" d="M 111.5,39.5 C 171.826,41.9122 229.826,55.0789 285.5,79C 383.119,122.798 457.786,191.298 509.5,284.5C 508.74,289.15 508.074,293.817 507.5,298.5C 446.719,184.257 354.385,107.424 230.5,68C 187.461,55.0182 143.461,48.5182 98.5,48.5C 102.622,45.266 106.955,42.266 111.5,39.5 Z"/></g>
<g><path style="opacity:0.998" fill="#de47ab" d="M 98.5,48.5 C 143.461,48.5182 187.461,55.0182 230.5,68C 354.385,107.424 446.719,184.257 507.5,298.5C 506.627,302.198 505.627,305.865 504.5,309.5C 480.445,262.435 449.445,220.435 411.5,183.5C 409.632,176.302 404.965,172.302 397.5,171.5C 333.007,113.761 257.673,77.594 171.5,63C 144.002,58.6807 116.335,56.5141 88.5,56.5C 91.5203,53.4838 94.8536,50.8171 98.5,48.5 Z"/></g>
<g><path style="opacity:0.999" fill="#d945b2" d="M 88.5,56.5 C 116.335,56.5141 144.002,58.6807 171.5,63C 257.673,77.594 333.007,113.761 397.5,171.5C 394.262,172.738 391.262,174.404 388.5,176.5C 305.093,104.735 207.927,68.0679 97,66.5C 92.4951,66.767 87.9951,67.1003 83.5,67.5C 81.0478,67.4609 79.0478,66.7943 77.5,65.5C 80.8514,62.1518 84.5181,59.1518 88.5,56.5 Z"/></g>
<g><path style="opacity:1" fill="#d544b7" d="M 77.5,65.5 C 79.0478,66.7943 81.0478,67.4609 83.5,67.5C 87.9951,67.1003 92.4951,66.767 97,66.5C 207.927,68.0679 305.093,104.735 388.5,176.5C 386.469,178.522 384.135,180.189 381.5,181.5C 290.872,104.846 185.872,69.8462 66.5,76.5C 69.8333,72.5 73.5,68.8333 77.5,65.5 Z"/></g>
<g><path style="opacity:0.999" fill="#d042be" d="M 381.5,181.5 C 379.122,183.878 376.455,185.878 373.5,187.5C 372.797,185.284 371.464,183.451 369.5,182C 278.92,109.676 175.587,77.1759 59.5,84.5C 61.117,81.2157 63.4503,78.5491 66.5,76.5C 185.872,69.8462 290.872,104.846 381.5,181.5 Z"/></g>
<g><path style="opacity:0.998" fill="#cb41c4" d="M 59.5,84.5 C 175.587,77.1759 278.92,109.676 369.5,182C 371.464,183.451 372.797,185.284 373.5,187.5C 371.909,189.633 369.909,191.299 367.5,192.5C 289.717,126.947 199.55,93.6134 97,92.5C 81.412,92.5679 65.912,93.5679 50.5,95.5C 53.1285,91.5373 56.1285,87.8706 59.5,84.5 Z"/></g>
<g><path style="opacity:0.998" fill="#c63fcb" d="M 367.5,192.5 C 365.14,194.853 362.473,196.853 359.5,198.5C 278.297,131.374 184.631,99.5408 78.5,103C 66.4053,103.443 54.4053,104.61 42.5,106.5C 44.4002,102.268 47.0669,98.6012 50.5,95.5C 65.912,93.5679 81.412,92.5679 97,92.5C 199.55,93.6134 289.717,126.947 367.5,192.5 Z"/></g>
<g><path style="opacity:0.999" fill="#c23ed1" d="M 359.5,198.5 C 357.14,200.853 354.473,202.853 351.5,204.5C 350.797,202.284 349.464,200.451 347.5,199C 255.78,127.981 152.113,100.148 36.5,115.5C 37.7589,111.975 39.7589,108.975 42.5,106.5C 54.4053,104.61 66.4053,103.443 78.5,103C 184.631,99.5408 278.297,131.374 359.5,198.5 Z"/></g>
<g><path style="opacity:0.999" fill="#bd3cd7" d="M 351.5,204.5 C 349.54,206.156 347.54,207.823 345.5,209.5C 292.05,164.953 230.717,136.787 161.5,125C 117.779,117.545 74.112,117.712 30.5,125.5C 32.0002,121.827 34.0002,118.494 36.5,115.5C 152.113,100.148 255.78,127.981 347.5,199C 349.464,200.451 350.797,202.284 351.5,204.5 Z"/></g>
<g><path style="opacity:0.999" fill="#b93bdd" d="M 345.5,209.5 C 343.343,211.412 341.009,213.079 338.5,214.5C 252.11,145.808 153.777,118.308 43.5,132C 37.553,132.795 31.7197,133.962 26,135.5C 25.6012,135.272 25.4346,134.938 25.5,134.5C 26.7738,131.24 28.4405,128.24 30.5,125.5C 74.112,117.712 117.779,117.545 161.5,125C 230.717,136.787 292.05,164.953 345.5,209.5 Z"/></g>
<g><path style="opacity:0.999" fill="#b439e4" d="M 338.5,214.5 C 335.72,217.064 332.72,219.397 329.5,221.5C 329.141,219.629 328.141,218.129 326.5,217C 234.791,148.327 132.457,124.827 19.5,146.5C 21.322,142.338 23.322,138.338 25.5,134.5C 25.4346,134.938 25.6012,135.272 26,135.5C 31.7197,133.962 37.553,132.795 43.5,132C 153.777,118.308 252.11,145.808 338.5,214.5 Z"/></g>
<g><path style="opacity:0.999" fill="#af38ea" d="M 329.5,221.5 C 327.343,223.412 325.009,225.079 322.5,226.5C 320.074,223.245 317.074,220.412 313.5,218C 223.73,154.411 124.73,133.577 16.5,155.5C 17.2163,152.402 18.2163,149.402 19.5,146.5C 132.457,124.827 234.791,148.327 326.5,217C 328.141,218.129 329.141,219.629 329.5,221.5 Z"/></g>
<g><path style="opacity:0.999" fill="#aa36f0" d="M 322.5,226.5 C 320.45,228.547 318.117,230.214 315.5,231.5C 264.397,190.638 206.063,166.138 140.5,158C 97.3563,152.812 54.6896,155.312 12.5,165.5C 13.2667,161.851 14.6001,158.518 16.5,155.5C 124.73,133.577 223.73,154.411 313.5,218C 317.074,220.412 320.074,223.245 322.5,226.5 Z"/></g>
<g><path style="opacity:0.999" fill="#a636f7" d="M 315.5,231.5 C 310.603,237.605 304.269,239.772 296.5,238C 274.552,222.386 252.885,206.386 231.5,190C 223.522,185.104 214.855,182.937 205.5,183.5C 205.918,182.778 206.584,182.278 207.5,182C 142.203,160.851 76.2026,158.351 9.5,174.5C 10.304,171.421 11.304,168.421 12.5,165.5C 54.6896,155.312 97.3563,152.812 140.5,158C 206.063,166.138 264.397,190.638 315.5,231.5 Z"/></g>
<g><path style="opacity:1" fill="#fefefe" d="M 397.5,171.5 C 404.965,172.302 409.632,176.302 411.5,183.5C 410.452,187.264 409.119,190.931 407.5,194.5C 405.478,196.531 403.811,198.865 402.5,201.5C 400.847,204.131 399.181,206.797 397.5,209.5C 395.917,211.663 394.584,213.996 393.5,216.5C 390.769,218.946 388.769,221.946 387.5,225.5C 385.412,227.336 384.079,229.669 383.5,232.5C 381.478,234.531 379.811,236.865 378.5,239.5C 376.833,242.167 375.167,244.833 373.5,247.5C 371.533,250.477 369.533,253.477 367.5,256.5C 366.167,258.833 364.833,261.167 363.5,263.5C 361.847,266.131 360.181,268.797 358.5,271.5C 356.412,273.336 355.079,275.669 354.5,278.5C 348.086,286.986 342.42,295.986 337.5,305.5C 334.677,308.475 332.344,311.808 330.5,315.5C 326.854,317.817 323.52,320.484 320.5,323.5C 316.178,324.829 311.845,326.163 307.5,327.5C 300.683,327.936 294.016,327.269 287.5,325.5C 284.766,324.295 282.099,322.795 279.5,321C 258.115,304.614 236.448,288.614 214.5,273C 206.202,271.322 199.535,273.822 194.5,280.5C 190.293,282.435 186.627,285.102 183.5,288.5C 179.104,291.025 175.104,294.025 171.5,297.5C 166.322,300.922 161.322,304.589 156.5,308.5C 152.167,311.833 147.833,315.167 143.5,318.5C 139.143,321.864 134.809,325.198 130.5,328.5C 125.643,332.092 120.643,335.425 115.5,338.5C 105.746,339.926 100.413,335.593 99.5,325.5C 104.167,317.167 108.833,308.833 113.5,300.5C 119.651,292.212 125.317,283.545 130.5,274.5C 133.069,271.039 135.403,267.372 137.5,263.5C 140.35,259.801 142.683,255.801 144.5,251.5C 147.734,247.378 150.734,243.045 153.5,238.5C 155.584,234.664 157.917,230.997 160.5,227.5C 162.833,223.5 165.167,219.5 167.5,215.5C 170.526,211.795 173.192,207.795 175.5,203.5C 182.118,191.851 192.118,185.185 205.5,183.5C 214.855,182.937 223.522,185.104 231.5,190C 252.885,206.386 274.552,222.386 296.5,238C 304.269,239.772 310.603,237.605 315.5,231.5C 318.117,230.214 320.45,228.547 322.5,226.5C 325.009,225.079 327.343,223.412 329.5,221.5C 332.72,219.397 335.72,217.064 338.5,214.5C 341.009,213.079 343.343,211.412 345.5,209.5C 347.54,207.823 349.54,206.156 351.5,204.5C 354.473,202.853 357.14,200.853 359.5,198.5C 362.473,196.853 365.14,194.853 367.5,192.5C 369.909,191.299 371.909,189.633 373.5,187.5C 376.455,185.878 379.122,183.878 381.5,181.5C 384.135,180.189 386.469,178.522 388.5,176.5C 391.262,174.404 394.262,172.738 397.5,171.5 Z"/></g>
<g><path style="opacity:0.997" fill="#9b36fe" d="M 205.5,183.5 C 192.118,185.185 182.118,191.851 175.5,203.5C 117.046,190.084 59.0465,191.751 1.5,208.5C 3.53555,197.024 6.20221,185.691 9.5,174.5C 76.2026,158.351 142.203,160.851 207.5,182C 206.584,182.278 205.918,182.778 205.5,183.5 Z"/></g>
<g><path style="opacity:0.998" fill="#d945b2" d="M 411.5,183.5 C 449.445,220.435 480.445,262.435 504.5,309.5C 503.567,314.628 502.234,319.628 500.5,324.5C 477.362,275.564 446.362,232.23 407.5,194.5C 409.119,190.931 410.452,187.264 411.5,183.5 Z"/></g>
<g><path style="opacity:0.998" fill="#923bff" d="M 175.5,203.5 C 173.192,207.795 170.526,211.795 167.5,215.5C 111.214,202.144 55.5475,204.477 0.5,222.5C 0.668612,217.819 1.00195,213.152 1.5,208.5C 59.0465,191.751 117.046,190.084 175.5,203.5 Z"/></g>
<g><path style="opacity:0.997" fill="#d444b9" d="M 407.5,194.5 C 446.362,232.23 477.362,275.564 500.5,324.5C 499.538,328.395 498.204,332.061 496.5,335.5C 478.301,296.487 455.467,260.487 428,227.5C 419.995,218.328 411.495,209.662 402.5,201.5C 403.811,198.865 405.478,196.531 407.5,194.5 Z"/></g>
<g><path style="opacity:0.996" fill="#d042be" d="M 402.5,201.5 C 411.495,209.662 419.995,218.328 428,227.5C 455.467,260.487 478.301,296.487 496.5,335.5C 495.594,339.901 493.928,343.901 491.5,347.5C 469.917,295.475 439.251,249.642 399.5,210C 398.906,209.536 398.239,209.369 397.5,209.5C 399.181,206.797 400.847,204.131 402.5,201.5 Z"/></g>
<g><path style="opacity:0.998" fill="#cb41c4" d="M 397.5,209.5 C 398.239,209.369 398.906,209.536 399.5,210C 439.251,249.642 469.917,295.475 491.5,347.5C 490.624,351.582 488.957,355.249 486.5,358.5C 465.482,304.418 434.482,257.085 393.5,216.5C 394.584,213.996 395.917,211.663 397.5,209.5 Z"/></g>
<g><path style="opacity:0.997" fill="#8c3fff" d="M 167.5,215.5 C 165.167,219.5 162.833,223.5 160.5,227.5C 106.014,214.716 52.3474,217.716 -0.5,236.5C -0.5,232.5 -0.5,228.5 -0.5,224.5C 0.338246,224.158 0.67158,223.492 0.5,222.5C 55.5475,204.477 111.214,202.144 167.5,215.5 Z"/></g>
<g><path style="opacity:0.999" fill="#8643ff" d="M 160.5,227.5 C 157.917,230.997 155.584,234.664 153.5,238.5C 101.175,227.711 49.8414,231.377 -0.5,249.5C -0.5,245.167 -0.5,240.833 -0.5,236.5C 52.3474,217.716 106.014,214.716 160.5,227.5 Z"/></g>
<g><path style="opacity:0.999" fill="#c63fcb" d="M 393.5,216.5 C 434.482,257.085 465.482,304.418 486.5,358.5C 485.341,362.151 483.674,365.485 481.5,368.5C 480.25,368.423 479.417,367.756 479,366.5C 460.092,317.316 433.092,273.316 398,234.5C 394.902,230.893 391.402,227.893 387.5,225.5C 388.769,221.946 390.769,218.946 393.5,216.5 Z"/></g>
<g><path style="opacity:0.997" fill="#c23ed1" d="M 387.5,225.5 C 391.402,227.893 394.902,230.893 398,234.5C 433.092,273.316 460.092,317.316 479,366.5C 479.417,367.756 480.25,368.423 481.5,368.5C 479.668,372.836 477.335,376.836 474.5,380.5C 455.306,324.073 424.973,274.74 383.5,232.5C 384.079,229.669 385.412,227.336 387.5,225.5 Z"/></g>
<g><path style="opacity:0.999" fill="#8047ff" d="M 153.5,238.5 C 150.734,243.045 147.734,247.378 144.5,251.5C 95.3227,242.801 47.4894,247.468 1,265.5C 0.617425,264.944 0.117425,264.611 -0.5,264.5C -0.5,259.5 -0.5,254.5 -0.5,249.5C 49.8414,231.377 101.175,227.711 153.5,238.5 Z"/></g>
<g><path style="opacity:0.998" fill="#bd3cd7" d="M 383.5,232.5 C 424.973,274.74 455.306,324.073 474.5,380.5C 473.231,384.054 471.231,387.054 468.5,389.5C 450.204,332.202 420.204,282.202 378.5,239.5C 379.811,236.865 381.478,234.531 383.5,232.5 Z"/></g>
<g><path style="opacity:0.998" fill="#b93bdd" d="M 378.5,239.5 C 420.204,282.202 450.204,332.202 468.5,389.5C 467.189,392.135 465.522,394.469 463.5,396.5C 448.301,352.766 426.801,312.433 399,275.5C 391.333,266.5 383.667,257.5 376,248.5C 375.329,247.748 374.496,247.414 373.5,247.5C 375.167,244.833 376.833,242.167 378.5,239.5 Z"/></g>
<g><path style="opacity:0.997" fill="#b439e4" d="M 373.5,247.5 C 374.496,247.414 375.329,247.748 376,248.5C 383.667,257.5 391.333,266.5 399,275.5C 426.801,312.433 448.301,352.766 463.5,396.5C 461.183,400.146 458.516,403.48 455.5,406.5C 439.265,353.493 413.099,306.16 377,264.5C 374.234,261.223 371.067,258.557 367.5,256.5C 369.533,253.477 371.533,250.477 373.5,247.5 Z"/></g>
<g><path style="opacity:0.997" fill="#794bff" d="M 144.5,251.5 C 142.683,255.801 140.35,259.801 137.5,263.5C 90.2803,255.821 44.6136,261.154 0.5,279.5C 0.8064,276.615 0.473067,273.948 -0.5,271.5C -0.5,269.167 -0.5,266.833 -0.5,264.5C 0.117425,264.611 0.617425,264.944 1,265.5C 47.4894,247.468 95.3227,242.801 144.5,251.5 Z"/></g>
<g><path style="opacity:0.998" fill="#af38ea" d="M 367.5,256.5 C 371.067,258.557 374.234,261.223 377,264.5C 413.099,306.16 439.265,353.493 455.5,406.5C 454.219,409.447 452.219,411.781 449.5,413.5C 435.677,369.521 415.177,328.854 388,291.5C 380.523,281.533 372.356,272.199 363.5,263.5C 364.833,261.167 366.167,258.833 367.5,256.5 Z"/></g>
<g><path style="opacity:0.998" fill="#734fff" d="M 137.5,263.5 C 135.403,267.372 133.069,271.039 130.5,274.5C 87.02,270.018 45.02,275.851 4.5,292C 3.74756,292.671 3.41423,293.504 3.5,294.5C 2.41538,289.61 1.41538,284.61 0.5,279.5C 44.6136,261.154 90.2803,255.821 137.5,263.5 Z"/></g>
<g><path style="opacity:0.997" fill="#aa36f0" d="M 363.5,263.5 C 372.356,272.199 380.523,281.533 388,291.5C 415.177,328.854 435.677,369.521 449.5,413.5C 447.5,416.167 445.167,418.5 442.5,420.5C 426.461,366.006 399.961,317.34 363,274.5C 361.871,272.859 360.371,271.859 358.5,271.5C 360.181,268.797 361.847,266.131 363.5,263.5 Z"/></g>
<g><path style="opacity:0.998" fill="#a635f6" d="M 358.5,271.5 C 360.371,271.859 361.871,272.859 363,274.5C 399.961,317.34 426.461,366.006 442.5,420.5C 440.167,423.5 437.5,426.167 434.5,428.5C 420.149,371.599 393.482,321.599 354.5,278.5C 355.079,275.669 356.412,273.336 358.5,271.5 Z"/></g>
<g><path style="opacity:0.998" fill="#7a4cff" d="M 287.5,325.5 C 286.761,325.369 286.094,325.536 285.5,326C 326.237,367.979 350.57,418.145 358.5,476.5C 354.556,478.964 350.223,480.63 345.5,481.5C 340.977,435.444 324.477,394.11 296,357.5C 269.167,322.512 235.334,296.845 194.5,280.5C 199.535,273.822 206.202,271.322 214.5,273C 236.448,288.614 258.115,304.614 279.5,321C 282.099,322.795 284.766,324.295 287.5,325.5 Z"/></g>
<g><path style="opacity:0.999" fill="#734fff" d="M 194.5,280.5 C 235.334,296.845 269.167,322.512 296,357.5C 324.477,394.11 340.977,435.444 345.5,481.5C 341.784,483.405 337.784,484.739 333.5,485.5C 322.722,407.299 284.055,347.466 217.5,306C 206.195,299.861 194.862,294.028 183.5,288.5C 186.627,285.102 190.293,282.435 194.5,280.5 Z"/></g>
<g><path style="opacity:0.998" fill="#6955ff" d="M 130.5,274.5 C 125.317,283.545 119.651,292.212 113.5,300.5C 77.1841,298.218 42.5174,304.552 9.5,319.5C 6.42635,311.535 4.42635,303.201 3.5,294.5C 3.41423,293.504 3.74756,292.671 4.5,292C 45.02,275.851 87.02,270.018 130.5,274.5 Z"/></g>
<g><path style="opacity:0.998" fill="#6d53ff" d="M 183.5,288.5 C 194.862,294.028 206.195,299.861 217.5,306C 284.055,347.466 322.722,407.299 333.5,485.5C 329.619,486.903 325.619,487.903 321.5,488.5C 311.427,410.793 272.761,352.293 205.5,313C 194.195,307.51 182.862,302.343 171.5,297.5C 175.104,294.025 179.104,291.025 183.5,288.5 Z"/></g>
<g><path style="opacity:0.996" fill="#9b36fe" d="M 354.5,278.5 C 393.482,321.599 420.149,371.599 434.5,428.5C 426.94,436.937 418.274,443.937 408.5,449.5C 397.011,395.192 373.344,347.192 337.5,305.5C 342.42,295.986 348.086,286.986 354.5,278.5 Z"/></g>
<g><path style="opacity:0.999" fill="#6657ff" d="M 171.5,297.5 C 182.862,302.343 194.195,307.51 205.5,313C 272.761,352.293 311.427,410.793 321.5,488.5C 317.079,490.102 312.412,491.102 307.5,491.5C 296.411,409.945 253.745,351.778 179.5,317C 171.735,314.104 164.069,311.271 156.5,308.5C 161.322,304.589 166.322,300.922 171.5,297.5 Z"/></g>
<g><path style="opacity:0.998" fill="#923bff" d="M 337.5,305.5 C 373.344,347.192 397.011,395.192 408.5,449.5C 404.852,452.66 400.852,455.327 396.5,457.5C 386.843,404.198 364.843,356.865 330.5,315.5C 332.344,311.808 334.677,308.475 337.5,305.5 Z"/></g>
<g><path style="opacity:0.999" fill="#605bff" d="M 156.5,308.5 C 164.069,311.271 171.735,314.104 179.5,317C 253.745,351.778 296.411,409.945 307.5,491.5C 303.409,492.895 299.076,493.562 294.5,493.5C 284.632,417.55 245.299,363.05 176.5,330C 165.568,325.635 154.568,321.802 143.5,318.5C 147.833,315.167 152.167,311.833 156.5,308.5 Z"/></g>
<g><path style="opacity:0.997" fill="#5c5eff" d="M 113.5,300.5 C 108.833,308.833 104.167,317.167 99.5,325.5C 70.8602,325.76 43.5269,331.76 17.5,343.5C 13.8372,335.845 11.1705,327.845 9.5,319.5C 42.5174,304.552 77.1841,298.218 113.5,300.5 Z"/></g>
<g><path style="opacity:0.997" fill="#8c3fff" d="M 330.5,315.5 C 364.843,356.865 386.843,404.198 396.5,457.5C 392.836,460.335 388.836,462.668 384.5,464.5C 375.85,411.548 354.517,364.548 320.5,323.5C 323.52,320.484 326.854,317.817 330.5,315.5 Z"/></g>
<g><path style="opacity:0.999" fill="#5a5fff" d="M 143.5,318.5 C 154.568,321.802 165.568,325.635 176.5,330C 245.299,363.05 284.632,417.55 294.5,493.5C 290.361,494.563 286.028,495.23 281.5,495.5C 274.812,432.259 244.478,384.093 190.5,351C 171.549,340.343 151.549,332.843 130.5,328.5C 134.809,325.198 139.143,321.864 143.5,318.5 Z"/></g>
<g><path style="opacity:0.997" fill="#8643ff" d="M 320.5,323.5 C 354.517,364.548 375.85,411.548 384.5,464.5C 380.818,467.008 376.818,469.008 372.5,470.5C 364.589,416.361 342.922,368.694 307.5,327.5C 311.845,326.163 316.178,324.829 320.5,323.5 Z"/></g>
<g><path style="opacity:0.998" fill="#8047ff" d="M 287.5,325.5 C 294.016,327.269 300.683,327.936 307.5,327.5C 342.922,368.694 364.589,416.361 372.5,470.5C 368.144,473.068 363.478,475.068 358.5,476.5C 350.57,418.145 326.237,367.979 285.5,326C 286.094,325.536 286.761,325.369 287.5,325.5 Z"/></g>
<g><path style="opacity:0.999" fill="#5563ff" d="M 130.5,328.5 C 151.549,332.843 171.549,340.343 190.5,351C 244.478,384.093 274.812,432.259 281.5,495.5C 277.481,495.646 273.481,495.979 269.5,496.5C 259.944,424.204 221.277,374.704 153.5,348C 140.838,344.241 128.172,341.074 115.5,338.5C 120.643,335.425 125.643,332.092 130.5,328.5 Z"/></g>
<g><path style="opacity:0.997" fill="#4f66ff" d="M 99.5,325.5 C 100.413,335.593 105.746,339.926 115.5,338.5C 128.172,341.074 140.838,344.241 153.5,348C 221.277,374.704 259.944,424.204 269.5,496.5C 264.5,496.5 259.5,496.5 254.5,496.5C 244.546,426.416 205.879,380.583 138.5,359C 102.249,349.65 66.9156,352.316 32.5,367C 31.0267,367.71 30.3601,368.876 30.5,370.5C 25.3852,361.935 21.0518,352.935 17.5,343.5C 43.5269,331.76 70.8602,325.76 99.5,325.5 Z"/></g>
<g><path style="opacity:0.997" fill="#476bff" d="M 254.5,496.5 C 250.5,496.5 246.5,496.5 242.5,496.5C 232.223,434.095 197.223,392.595 137.5,372C 102.602,362.679 68.6018,365.179 35.5,379.5C 33.5797,376.661 31.9131,373.661 30.5,370.5C 30.3601,368.876 31.0267,367.71 32.5,367C 66.9156,352.316 102.249,349.65 138.5,359C 205.879,380.583 244.546,426.416 254.5,496.5 Z"/></g>
<g><path style="opacity:0.997" fill="#426eff" d="M 242.5,496.5 C 238.5,496.167 234.5,495.833 230.5,495.5C 222.191,442.359 193.191,405.526 143.5,385C 109.029,372.932 75.0287,374.099 41.5,388.5C 39.2651,385.709 37.2651,382.709 35.5,379.5C 68.6018,365.179 102.602,362.679 137.5,372C 197.223,392.595 232.223,434.095 242.5,496.5 Z"/></g>
<g><path style="opacity:0.997" fill="#3c72ff" d="M 230.5,495.5 C 225.405,495.238 220.405,494.572 215.5,493.5C 205.721,443.886 176.721,411.386 128.5,396C 103.868,389.464 79.5346,390.464 55.5,399C 53.9336,399.608 52.6002,400.442 51.5,401.5C 47.4516,397.746 44.1183,393.413 41.5,388.5C 75.0287,374.099 109.029,372.932 143.5,385C 193.191,405.526 222.191,442.359 230.5,495.5 Z"/></g>
<g><path style="opacity:0.997" fill="#3477ff" d="M 215.5,493.5 C 210.149,492.963 204.816,492.296 199.5,491.5C 191.029,452.52 168.029,426.02 130.5,412C 107.114,404.621 83.7812,404.787 60.5,412.5C 57.1518,409.149 54.1518,405.482 51.5,401.5C 52.6002,400.442 53.9336,399.608 55.5,399C 79.5346,390.464 103.868,389.464 128.5,396C 176.721,411.386 205.721,443.886 215.5,493.5 Z"/></g>
<g><path style="opacity:0.996" fill="#2e7bff" d="M 199.5,491.5 C 194.711,490.283 190.045,488.949 185.5,487.5C 173.64,448.815 147.64,426.315 107.5,420C 96.016,418.92 84.6826,419.753 73.5,422.5C 72.2867,422.747 71.62,423.414 71.5,424.5C 67.8616,420.526 64.1949,416.526 60.5,412.5C 83.7812,404.787 107.114,404.621 130.5,412C 168.029,426.02 191.029,452.52 199.5,491.5 Z"/></g>
<g><path style="opacity:0.993" fill="#2780ff" d="M 185.5,487.5 C 180.528,486.578 175.528,486.412 170.5,487C 167.242,488.467 163.908,489.633 160.5,490.5C 146.82,457.652 122.154,442.652 86.5,445.5C 84.2686,436.59 79.2686,429.59 71.5,424.5C 71.62,423.414 72.2867,422.747 73.5,422.5C 84.6826,419.753 96.016,418.92 107.5,420C 147.64,426.315 173.64,448.815 185.5,487.5 Z"/></g>
<g><path style="opacity:0.99" fill="#1c87ff" d="M 160.5,490.5 C 156.082,493.203 151.416,495.537 146.5,497.5C 136.169,469.981 116.169,457.648 86.5,460.5C 86.5,455.5 86.5,450.5 86.5,445.5C 122.154,442.652 146.82,457.652 160.5,490.5 Z"/></g>
<g><path style="opacity:0.992" fill="#148cff" d="M 86.5,460.5 C 116.169,457.648 136.169,469.981 146.5,497.5C 138.504,500.831 130.504,504.164 122.5,507.5C 118.531,490.665 107.864,483.498 90.5,486C 89.4734,486.513 88.4734,487.013 87.5,487.5C 87.4991,478.485 87.1658,469.485 86.5,460.5 Z"/></g>
<g><path style="opacity:0.977" fill="#0993ff" d="M 122.5,507.5 C 120.167,508.833 117.833,510.167 115.5,511.5C 111.167,511.5 106.833,511.5 102.5,511.5C 91.984,507.167 86.984,499.167 87.5,487.5C 88.4734,487.013 89.4734,486.513 90.5,486C 107.864,483.498 118.531,490.665 122.5,507.5 Z"/></g>
</svg>
